<?xml version="1.0" encoding="utf-8"?>
<!-- Generator: Adobe Illustrator 16.0.0, SVG Export Plug-In . SVG Version: 6.00 Build 0)  -->
<!DOCTYPE svg PUBLIC "-//W3C//DTD SVG 1.1//EN" "http://www.w3.org/Graphics/SVG/1.1/DTD/svg11.dtd">
<svg version="1.1" id="Warstwa_1" xmlns="http://www.w3.org/2000/svg" xmlns:xlink="http://www.w3.org/1999/xlink" x="0px" y="0px"
	 width="314.711px" height="85.789px" viewBox="0 0 314.711 85.789" enable-background="new 0 0 314.711 85.789"
	 xml:space="preserve">
<g>
	<path fill="#F2F1F1" d="M22.517,69.004l52.547-4.24c6.052-1.643,9.628-7.881,7.987-13.933L73.045,13.926
		c-1.641-6.052-7.877-9.628-13.93-7.987L15.573,17.185L22.517,69.004z"/>
	
		<linearGradient id="SVGID_1_" gradientUnits="userSpaceOnUse" x1="257.8086" y1="-200.5684" x2="334.9609" y2="-200.5684" gradientTransform="matrix(1 0 0 -1 -250.8799 -155.5664)">
		<stop  offset="0" style="stop-color:#80BB42"/>
		<stop  offset="0.871" style="stop-color:#6CB432"/>
	</linearGradient>
	<path fill="url(#SVGID_1_)" d="M84.081,64.12c0,6.271-5.083,11.354-11.354,11.354H18.282c-6.271,0-11.354-5.084-11.354-11.354
		V25.883c0-6.271,5.083-11.354,11.354-11.354h54.444c6.271,0,11.354,5.084,11.354,11.354L84.081,64.12L84.081,64.12z"/>
	<path fill="#FFFFFF" d="M89.235,50.004c0,6.18-2.008,6.188-8.189,6.188H65.775c-6.18,0-11.19-5.01-11.19-11.189l0,0
		c0-6.181,5.01-11.19,11.19-11.19h15.271c6.181,0,8.189,0.007,8.189,6.188V50.004L89.235,50.004z"/>
	<path fill="#7BB93E" d="M73.596,45.038c0,3.489-2.829,6.319-6.319,6.319l0,0c-3.49,0-6.319-2.83-6.319-6.319l0,0
		c0-3.489,2.829-6.318,6.319-6.318l0,0C70.767,38.719,73.596,41.548,73.596,45.038L73.596,45.038z"/>
</g>
<g>
	<path fill="#FFFFFF" d="M128.568,13.963c1.738,0.992,3.109,2.368,4.112,4.128c1.002,1.76,1.504,3.75,1.504,5.968
		c0,2.219-0.507,4.213-1.52,5.984c-1.014,1.771-2.39,3.152-4.128,4.144c-1.739,0.992-3.664,1.488-5.776,1.488
		c-2.112,0-4.038-0.496-5.776-1.488c-1.739-0.992-3.115-2.373-4.128-4.144s-1.52-3.765-1.52-5.984c0-2.218,0.507-4.208,1.52-5.968
		c1.013-1.76,2.389-3.136,4.128-4.128c1.739-0.992,3.664-1.488,5.776-1.488C124.893,12.475,126.829,12.971,128.568,13.963z
		 M118.488,19.307c-1.056,1.163-1.584,2.747-1.584,4.752c0,1.984,0.528,3.563,1.584,4.736c1.056,1.173,2.48,1.76,4.272,1.76
		c1.771,0,3.189-0.586,4.256-1.76c1.066-1.173,1.6-2.752,1.6-4.736s-0.528-3.563-1.584-4.736c-1.056-1.173-2.48-1.76-4.272-1.76
		S119.544,18.145,118.488,19.307z"/>
	<path fill="#FFFFFF" d="M151.944,12.827v4.352h-9.28v4.96h7.168v4.16h-7.168v9.152h-5.472V12.827H151.944z"/>
	<path fill="#FFFFFF" d="M160.167,17.179v4.736h7.647v4.128h-7.647v5.024h8.608v4.384h-14.081V12.827h14.081v4.352H160.167z"/>
	<path fill="#FFFFFF" d="M183.432,35.451l-4.896-8.544h-1.248v8.544h-5.472V12.827h9.344c1.792,0,3.307,0.31,4.544,0.928
		c1.237,0.618,2.165,1.467,2.784,2.544c0.619,1.077,0.928,2.31,0.928,3.696c0,1.643-0.453,3.04-1.359,4.192
		s-2.225,1.942-3.951,2.368l5.375,8.896H183.432z M177.287,23.163h3.393c1.088,0,1.889-0.24,2.399-0.72
		c0.513-0.48,0.769-1.189,0.769-2.128c0-0.896-0.262-1.6-0.783-2.112c-0.523-0.512-1.317-0.768-2.385-0.768h-3.393V23.163z"/>
	<path fill="#FFFFFF" d="M208.359,12.827v4.352h-6.146v18.272h-5.504V17.179h-6.08v-4.352H208.359z"/>
	<path fill="#FFFFFF" d="M230.15,12.827l-7.84,15.104v7.52h-5.504v-7.52l-7.841-15.104h6.271l4.354,9.216l4.352-9.216H230.15z"/>
	<path fill="#FFFFFF" d="M122.664,59.898l9.12,11.552h-6.624l-7.68-10.144V71.45h-5.472V48.827h5.472v9.95l7.744-9.95h6.56
		L122.664,59.898z"/>
	<path fill="#FFFFFF" d="M145.64,71.45l-4.896-8.544h-1.248v8.544h-5.472V48.827h9.344c1.792,0,3.307,0.31,4.544,0.928
		c1.237,0.618,2.165,1.468,2.784,2.544c0.619,1.077,0.928,2.311,0.928,3.696c0,1.644-0.453,3.039-1.36,4.19
		c-0.907,1.152-2.224,1.941-3.952,2.369l5.376,8.896H145.64z M139.496,59.162h3.392c1.088,0,1.888-0.239,2.4-0.721
		c0.512-0.479,0.768-1.188,0.768-2.127c0-0.896-0.261-1.6-0.784-2.111s-1.318-0.768-2.384-0.768h-3.392V59.162z"/>
	<path fill="#FFFFFF" d="M159.783,53.18v4.734h7.648v4.127h-7.648v5.023h8.607v4.385h-14.08V48.827h14.08v4.353H159.783z"/>
	<path fill="#FFFFFF" d="M190.359,65.994c-0.949,1.718-2.315,3.057-4.096,4.018c-1.783,0.959-3.879,1.438-6.289,1.438h-8.543V48.827
		h8.543c2.433,0,4.532,0.47,6.305,1.407c1.771,0.939,3.131,2.262,4.08,3.969s1.424,3.669,1.424,5.888
		C191.783,62.311,191.309,64.277,190.359,65.994z M184.473,64.857c1.184-1.131,1.774-2.719,1.774-4.768s-0.593-3.637-1.774-4.768
		c-1.186-1.131-2.845-1.696-4.978-1.696h-2.593v12.929h2.593C181.628,66.555,183.287,65.988,184.473,64.857z"/>
	<path fill="#FFFFFF" d="M214.375,48.827l-7.84,15.104v7.52h-5.504v-7.52l-7.842-15.104h6.272l4.353,9.215l4.353-9.215H214.375z"/>
	<path fill="#FFFFFF" d="M232.68,48.827v4.353h-6.146V71.45h-5.505V53.18h-6.079v-4.353H232.68z"/>
	<path fill="#FFFFFF" d="M251.479,49.963c1.738,0.992,3.108,2.368,4.111,4.128c1.003,1.761,1.504,3.749,1.504,5.968
		s-0.507,4.213-1.52,5.982c-1.014,1.771-2.391,3.152-4.129,4.145s-3.663,1.488-5.775,1.488c-2.111,0-4.037-0.496-5.775-1.488
		s-3.115-2.373-4.129-4.145c-1.013-1.771-1.52-3.766-1.52-5.982c0-2.219,0.507-4.209,1.52-5.968c1.014-1.76,2.391-3.136,4.129-4.128
		s3.664-1.488,5.775-1.488C247.803,48.475,249.738,48.971,251.479,49.963z M241.398,55.307c-1.058,1.164-1.584,2.748-1.584,4.752
		c0,1.982,0.526,3.563,1.584,4.735c1.056,1.173,2.479,1.761,4.271,1.761c1.771,0,3.188-0.588,4.256-1.761
		c1.066-1.174,1.601-2.753,1.601-4.735c0-1.984-0.527-3.563-1.584-4.736c-1.057-1.172-2.479-1.76-4.271-1.76
		S242.454,54.145,241.398,55.307z"/>
	<path fill="#FFFFFF" d="M290.854,48.827l-5.408,22.623h-6.782l-3.616-15.136l-3.648,15.136h-6.783l-5.407-22.623h5.951
		l2.911,16.383l3.97-16.383h5.983l3.968,16.383l2.944-16.383H290.854z"/>
	<path fill="#FFFFFF" d="M299.141,53.18v4.734h7.648v4.127h-7.648v5.023h8.608v4.385h-14.08V48.827h14.08v4.353H299.141z"/>
</g>
</svg>
